<svg xmlns="http://www.w3.org/2000/svg" viewBox="0 0 576 216" version="1.0">
   <path d="M99.9 99.9l-5.1-.8c-3.7-.7-7.5-2.2-7.5-3.5v-6.4c0-2.5 21.4-2.3 36.1-2.3l6.3-7.6H79.1l2 3.5c-1.9 1-2.8 2.2-2.8 3.6V99c0 2.8 4.6 5.4 14.7 7.5l6.9 1.1zM147.8 87.3c5.3.3 9.3.9 9.3 1.9v5.9h8.9v-8.8c0-2.5-4.6-4.4-12.8-5.5zM130.8 108l4.1 5 14.8 2.3c3.6.7 7.5 2.2 7.5 3.5v5.5c0 1.3-4.6 2-11 2.4l5.7 6.9c9.2-1.1 14.3-3 14.3-5.8v-11.2c0-2.3-.3-3-.5-3.4-1.3-2.3-4.3-3.2-17.5-6l-14.9-2.3zM87.3 125v-5.2h-9v8.1c0 4.8 19.4 7.1 45.6 7.1h4.2l-6.3-7.7c-8.4.1-34.5.1-34.5-2.3" fill="#ffc629"/>
   <path d="M162 62.4h-19l2.7 5.1-30.8 37.5V91.6c-3.3 0-6.7 0-10 .1v30.7c3.3.1 6.7.1 10 .1v-11.4l30.8 37.6-2.6 4.9h18.8L124.5 108zM104.8 68.7v5.6h10V62.4h-13.3zM104.8 147.3l-3.3 6.3h13.4v-13.8c-3.3-.1-6.7-.2-10-.4v7.9z" fill="#ffc629"/>
   <path d="M171 128v-11.2c0-2.1-.3-4.5-1.1-5.8-2.8-4.6-8.9-5.7-13.7-6.8-2-.5-9.9-1.8-19.5-3.4L144 92c2.9.2 5.7.4 8.3.8v7.2h18.6V86.2c.1-6.1-6.9-8.3-11.6-9.4-.7-.2-1.5-.3-2.4-.5l15.5-18.8H135l4.9 9.3-6.3 7.7c-4.6-.1-9-.2-12.5-.2h-1.3V57.5H93.4l6.5 12.4v4.4H70.8l4.1 7.3c-.9 1.3-1.5 3-1.5 4.6v12.6c-.1 8.5 12.3 10.9 18.6 12.2 2.6.4 5.3.9 7.9 1.3v9.8c-2.6-.1-5.2-.4-7.7-.7V115H73.5v13c-.1 8.7 13.8 9.8 20 10.5 2.2.3 4.3.5 6.5.6v7l-6.5 12.4h26.3v-18.7h3.4c3 0 6 0 9-.1l7.7 9.5-4.9 9.2h37.2l-16.6-20.3c6.6-.9 15.4-3 15.4-10.1m-22.9-20.6c13.3 2.7 16.2 3.7 17.5 6 .2.3.5 1.1.5 3.4V128c0 2.7-5.1 4.6-14.3 5.8l-5.7-6.9c6.4-.4 11-1.2 11-2.4V119c0-1.4-4-2.8-7.5-3.5l-14.8-2.3-4.1-5 2.4-2.9zm-5.6 15l-3.2-3.9c3.1.5 6.3 1 9.4 1.5 1.2.2 2.5.5 3.5.8v.7c-3.2.5-6.4.7-9.7.9M166 86.2V95h-8.9v-5.9c0-1-4-1.5-9.3-1.9l5.4-6.6c8.2 1.3 12.8 3.1 12.8 5.6m-51.2-23.8v12h-10v-5.6l-3.3-6.3h13.3zM93 106.3c-10.1-2.1-14.7-4.7-14.7-7.5V86.3c0-1.4.9-2.6 2.8-3.6l-2-3.5h50.5l-6.3 7.6c-14.7 0-36.1-.2-36.1 2.3v6.4c0 1.4 3.8 2.8 7.5 3.5l5.1.8v7.6zm6.9-14.4V95c-.8-.1-1.5-.2-2.1-.3-.7-.1-4.7-1-5.7-1.3v-.8c2.6-.3 5.2-.6 7.8-.7m14.9 61.7h-13.4l3.3-6.3v-7.9c3.3.2 6.7.3 10 .4v13.8zm9.1-18.6c-26.2 0-45.6-2.3-45.6-7.1v-8.1h9v5.2c0 2.3 26.1 2.3 34.5 2.3l6.3 7.7h-4.2m37.9 18.6H143l2.6-4.9-30.8-37.6v11.4c-3.3 0-6.7 0-10-.1V91.7c3.3-.1 6.7-.1 10-.1v13.3l30.8-37.5-2.7-5.1h19L124.5 108z"/>
   <path d="M169.9 141c0-1.1-.7-2.2-1.8-2.9 3.7-2.1 6.4-5.7 6.4-10.1v-11.2c0-6.2-2.7-10.8-8.4-13.3h8.3V89.6c0-2 .2-4.2-.4-6.2-1.4-5-6.3-7.7-11-9.1L179.4 54h-50.2c2.1 4.1 4.3 8.3 6.4 12.4l-3.8 4.6c-3.1-.1-6.1-.1-8.7-.1V54H87.6l8.8 16.8v.1H64.8l6.1 10.8c-.6 1.4-1 3-1 4.6v12.6c-.1 6.3 5.1 10.4 10.4 12.6H70V128c-.3 12.5 17.7 13.5 26.5 14.3v3L87.6 162h35.6v-18.6h7.2l5.2 6.4-6.5 12.3h50.3l-13.9-17c2.6-.7 4.4-2.2 4.4-4.1m2.2 17.5h-37.2l4.9-9.2-7.7-9.5c-3 .1-6 .1-9 .1h-3.4v18.7H93.4l6.5-12.4v-7c-2.2-.2-4.3-.4-6.5-.6-6.1-.7-20-1.8-20-10.5v-13h18.7v6.6c2.6.3 5.1.5 7.7.7v-9.8c-2.6-.4-5.3-.9-7.9-1.3-6.3-1.3-18.7-3.8-18.6-12.2V86.3c0-1.6.6-3.3 1.5-4.6l-4.1-7.3h29.1V70l-6.5-12.4h26.3v16.8h1.3c3.5 0 7.9.1 12.5.2l6.3-7.7s-3.8-7.4-4.9-9.3h37.3l-15.5 18.8c.9.2 1.7.3 2.4.5 4.8 1.1 11.7 3.4 11.6 9.4V100H152v-7.2c-2.5-.4-5.3-.6-8.3-.8l-7.3 8.8c9.5 1.5 17.5 2.9 19.5 3.4 4.8 1.1 10.9 2.2 13.7 6.8.8 1.3 1.1 3.7 1.1 5.8V128c0 7.1-8.8 9.3-15.5 10.2z" fill="#b0b3b2"/>
   <path d="M97.8 94.6c.6.1 1.3.2 2.1.3v-3.1c-2.6.1-5.2.4-7.7.7v.8c.9.4 4.9 1.2 5.6 1.3M148.8 120c-3.1-.5-6.3-1-9.4-1.5l3.2 3.9c3.2-.1 6.5-.4 9.7-.9v-.7c-1-.4-2.3-.6-3.5-.8" fill="#b0b3b2"/>
   <path d="M166.4 141.1c0 1.1-.8 1.9-1.9 1.9-1.1 0-1.9-.8-1.9-1.9 0-1 .9-1.9 1.9-1.9 1.1 0 1.9.9 1.9 1.9m-3.3 0c0 .8.6 1.5 1.5 1.5.8 0 1.4-.7 1.4-1.5s-.6-1.5-1.4-1.5c-.9 0-1.5.7-1.5 1.5m1.1 1h-.4v-1.9c.2 0 .4-.1.7-.1.4 0 .5.1.6.1.1.1.2.2.2.4s-.2.4-.4.4c.2.1.3.2.3.5.1.3.1.4.1.5h-.3c-.1-.1-.1-.2-.1-.5 0-.2-.1-.3-.4-.3h-.2v.9zm0-1.1h.2c.2 0 .4-.1.4-.3 0-.2-.1-.3-.4-.3h-.2z"/>
   <path fill="none" stroke="#ffc629" stroke-width="1.084" stroke-miterlimit="10" d="M188.4 74.3v65.6"/>
   <g fill="#ffc629">
      <path d="M205.8 93.2l-3.1 3.2v5.8h-5.3V79.1h5.3v10.8L213 79.1h5.9l-9.6 10.3 10.1 12.8h-6.2l-7.4-9zM239.7 97.9v4.3h-17.9V79.1h17.5v4.3h-12.1v5h10.7v4.2h-10.7v5.3h12.5zM265.2 79.1v23.1h-4.4l-11.5-14v14H244V79.1h4.4l11.5 14v-14h5.3zM292.7 79.1v23.1h-4.4l-11.5-14v14h-5.3V79.1h4.4l11.5 14v-14h5.3zM316.8 97.9v4.3H299V79.1h17.5v4.3h-12.1v5H315v4.2h-10.7v5.3h12.5zM319.3 100l1.8-4c1.9 1.4 4.9 2.4 7.6 2.4 3.2 0 4.5-1.1 4.5-2.5 0-4.3-13.4-1.4-13.4-9.9 0-3.9 3.2-7.2 9.7-7.2 2.9 0 5.9.7 8 2l-1.7 4.1c-2.1-1.2-4.4-1.8-6.4-1.8-3.2 0-4.4 1.2-4.4 2.6 0 4.3 13.4 1.3 13.4 9.8 0 3.9-3.2 7.2-9.8 7.2-3.6-.1-7.3-1.2-9.3-2.7zM357.2 97.3h-10.7l-2 5H339l10.3-23.1h5.3l10.3 23.1h-5.6l-2.1-5zm-1.7-4.1l-3.7-8.8-3.7 8.8h7.4zM399.5 79.1l-7.6 23.1h-5.7l-5.1-15.6-5.2 15.6h-5.7l-7.6-23.1h5.5l5.2 16.2 5.4-16.2h5l5.3 16.4 5.4-16.4h5.1zM410.5 100l1.8-4c1.9 1.4 4.9 2.4 7.6 2.4 3.2 0 4.5-1.1 4.5-2.5 0-4.3-13.4-1.4-13.4-9.9 0-3.9 3.2-7.2 9.7-7.2 2.9 0 5.9.7 8 2l-1.7 4.1c-2.1-1.2-4.4-1.8-6.4-1.8-3.2 0-4.4 1.2-4.4 2.6 0 4.3 13.4 1.3 13.4 9.8 0 3.9-3.2 7.2-9.8 7.2-3.6-.1-7.3-1.2-9.3-2.7zM437.7 83.5h-7.4v-4.4h20.1v4.4H443v18.7h-5.3V83.5zM465.5 97.3h-10.7l-2 5h-5.5l10.3-23.1h5.3l10.3 23.1h-5.6l-2.1-5zm-1.6-4.1l-3.7-8.8-3.7 8.8h7.4zM477.5 83.5h-7.4v-4.4h20.1v4.4h-7.4v18.7h-5.3V83.5zM511.1 97.9v4.3h-17.9V79.1h17.5v4.3h-12.1v5h10.7v4.2h-10.7v5.3h12.5z"/>
      <g>
         <path d="M197.5 125.1v-13.2h2.4V125c0 5.5 2.6 8 7.1 8s7.1-2.5 7.1-8v-13.1h2.4v13.2c0 6.6-3.6 10.1-9.5 10.1s-9.5-3.5-9.5-10.1zM255.9 111.8v23.1h-2L239 116.2v18.7h-2.4v-23.1h2l14.9 18.7v-18.7h2.4zM276.3 111.8h2.4v23.1h-2.4v-23.1zM318.2 111.8L308 134.9h-2.4l-10.2-23.1h2.6l8.8 20.1 8.9-20.1h2.5zM351.2 132.8v2.1h-16.3v-23.1h15.8v2.1h-13.4v8.2h11.9v2.1h-11.9v8.6h13.9zM385.5 134.9l-5.3-7.4c-.6.1-1.2.1-1.8.1h-6.2v7.3h-2.4v-23.1h8.6c5.9 0 9.4 3 9.4 7.9 0 3.6-1.9 6.2-5.3 7.3l5.6 7.9h-2.6zm-.1-15.2c0-3.7-2.4-5.8-7.1-5.8h-6.1v11.6h6.1c4.6 0 7.1-2.1 7.1-5.8zM404.2 132.1l1-1.9c1.6 1.6 4.6 2.8 7.6 2.8 4.3 0 6.2-1.8 6.2-4.1 0-6.3-14.2-2.4-14.2-11 0-3.4 2.6-6.3 8.5-6.3 2.6 0 5.3.8 7.2 2l-.8 1.9c-2-1.3-4.3-1.9-6.3-1.9-4.2 0-6.1 1.9-6.1 4.2 0 6.3 14.2 2.5 14.2 10.9 0 3.4-2.7 6.3-8.6 6.3-3.6.1-7-1.1-8.7-2.9zM439.5 111.8h2.4v23.1h-2.4v-23.1zM466.8 113.9h-8.1v-2.1h18.7v2.1h-8.1v21h-2.4v-21zM501.9 126.9v8h-2.4v-8l-9.2-15.1h2.6l7.9 13 7.9-13h2.4l-9.2 15.1z"/>
      </g>
   </g>
</svg>
